<svg xmlns="http://www.w3.org/2000/svg" xmlns:xlink="http://www.w3.org/1999/xlink" width="854pt" height="807pt" viewBox="0.00 0.00 853.80 806.70">
<g id="graph0" class="graph" transform="scale(1 1) rotate(0) translate(4 802.7)">
<title>G</title>
<polygon fill="white" stroke="none" points="-4,4 -4,-802.7 849.8,-802.7 849.8,4 -4,4"/>
<g id="clust1" class="cluster">
<title>cluster_0</title>
<polygon fill="lightgrey" stroke="lightgrey" points="0,0 0,-188.56 341.68,-188.56 341.68,0 0,0"/>
<text text-anchor="middle" x="170.84" y="-171.96" font-family="Times,serif" font-size="14.00">CI/CD Steps</text>
</g>
<g id="clust2" class="cluster">
<title>cluster_1</title>
<polygon fill="none" stroke="blue" points="405.62,-263.8 405.62,-417.51 735.95,-417.51 735.95,-263.8 405.62,-263.8"/>
<text text-anchor="middle" x="570.79" y="-400.91" font-family="Times,serif" font-size="14.00">Git Operations</text>
</g>
<g id="clust3" class="cluster">
<title>cluster_2</title>
<polygon fill="none" stroke="green" points="421.09,-429.88 421.09,-604.73 845.8,-604.73 845.8,-429.88 421.09,-429.88"/>
<text text-anchor="middle" x="633.45" y="-588.13" font-family="Times,serif" font-size="14.00">Model Validation and Promotion</text>
</g>
<g id="clust4" class="cluster">
<title>cluster_3</title>
<polygon fill="none" stroke="orange" points="190.07,-631.08 190.07,-798.7 489.31,-798.7 489.31,-631.08 190.07,-631.08"/>
<text text-anchor="middle" x="339.69" y="-782.1" font-family="Times,serif" font-size="14.00">Optional Docker and Deployment</text>
</g>
<!-- checkout_code -->
<g id="node1" class="node">
<title>checkout_code</title>
<polygon fill="white" stroke="white" points="159.26,-155.76 56.55,-155.76 56.55,-119.76 159.26,-119.76 159.26,-155.76"/>
<text text-anchor="middle" x="107.91" y="-133.56" font-family="Times,serif" font-size="14.00">Checkout Code</text>
</g>
<!-- setup_python -->
<g id="node2" class="node">
<title>setup_python</title>
<polygon fill="white" stroke="white" points="128.73,-111.13 34.17,-111.13 34.17,-75.13 128.73,-75.13 128.73,-111.13"/>
<text text-anchor="middle" x="81.45" y="-88.93" font-family="Times,serif" font-size="14.00">Set up Python</text>
</g>
<!-- checkout_code&#45;&gt;setup_python -->
<g id="edge1" class="edge">
<title>checkout_code-&gt;setup_python</title>
<path fill="none" stroke="black" d="M96.99,-119.35C96.9,-119.19 96.8,-119.02 96.7,-118.86"/>
<polygon fill="black" stroke="black" points="101.22,-119.62 93.11,-112.8 95.2,-123.19 101.22,-119.62"/>
</g>
<!-- install_dependencies -->
<g id="node3" class="node">
<title>install_dependencies</title>
<polygon fill="white" stroke="white" points="141.01,-61.77 8,-61.77 8,-25.77 141.01,-25.77 141.01,-61.77"/>
<text text-anchor="middle" x="74.51" y="-39.57" font-family="Times,serif" font-size="14.00">Install Dependencies</text>
</g>
<!-- setup_python&#45;&gt;install_dependencies -->
<g id="edge2" class="edge">
<title>setup_python-&gt;install_dependencies</title>
<path fill="none" stroke="black" d="M78.86,-74.75C78.79,-74.23 78.72,-73.7 78.64,-73.18"/>
<polygon fill="black" stroke="black" points="82.14,-72.91 77.28,-63.5 75.21,-73.89 82.14,-72.91"/>
</g>
<!-- run_pipeline -->
<g id="node4" class="node">
<title>run_pipeline</title>
<polygon fill="white" stroke="white" points="333.68,-44 178.89,-44 178.89,-8 333.68,-8 333.68,-44"/>
<text text-anchor="middle" x="256.28" y="-21.8" font-family="Times,serif" font-size="14.00">Run Pipeline (dvc repro)</text>
</g>
<!-- install_dependencies&#45;&gt;run_pipeline -->
<g id="edge3" class="edge">
<title>install_dependencies-&gt;run_pipeline</title>
<path fill="none" stroke="black" d="M141.42,-37.23C149.8,-36.41 158.46,-35.56 167.11,-34.72"/>
<polygon fill="black" stroke="black" points="167.32,-38.21 176.94,-33.76 166.64,-31.25 167.32,-38.21"/>
</g>
<!-- push_dvc_data -->
<g id="node5" class="node">
<title>push_dvc_data</title>
<polygon fill="lightgrey" stroke="black" points="570.36,-384.71 413.62,-384.71 413.62,-348.71 570.36,-348.71 570.36,-384.71"/>
<text text-anchor="middle" x="491.99" y="-362.51" font-family="Times,serif" font-size="14.00">Push DVC-Tracked Data</text>
</g>
<!-- run_pipeline&#45;&gt;push_dvc_data -->
<g id="edge17" class="edge">
<title>run_pipeline-&gt;push_dvc_data</title>
<path fill="none" stroke="black" d="M268.96,-44.32C307.96,-100.7 426.4,-271.9 472.93,-339.16"/>
<polygon fill="black" stroke="black" points="469.82,-340.83 478.39,-347.06 475.58,-336.84 469.82,-340.83"/>
</g>
<!-- configure_git -->
<g id="node6" class="node">
<title>configure_git</title>
<polygon fill="lightgrey" stroke="black" points="546.94,-331.01 452.79,-331.01 452.79,-295.01 546.94,-295.01 546.94,-331.01"/>
<text text-anchor="middle" x="499.86" y="-308.81" font-family="Times,serif" font-size="14.00">Configure Git</text>
</g>
<!-- push_dvc_data&#45;&gt;configure_git -->
<g id="edge4" class="edge">
<title>push_dvc_data-&gt;configure_git</title>
<path fill="none" stroke="black" d="M494.7,-348.23C494.96,-346.44 495.23,-344.59 495.51,-342.73"/>
<polygon fill="black" stroke="black" points="498.97,-343.24 496.96,-332.84 492.04,-342.23 498.97,-343.24"/>
</g>
<!-- add_changes -->
<g id="node7" class="node">
<title>add_changes</title>
<polygon fill="lightgrey" stroke="black" points="709.64,-307.8 582.04,-307.8 582.04,-271.8 709.64,-271.8 709.64,-307.8"/>
<text text-anchor="middle" x="645.84" y="-285.6" font-family="Times,serif" font-size="14.00">Add Changes to Git</text>
</g>
<!-- configure_git&#45;&gt;add_changes -->
<g id="edge5" class="edge">
<title>configure_git-&gt;add_changes</title>
<path fill="none" stroke="black" d="M547.26,-305.47C554.73,-304.29 562.61,-303.03 570.52,-301.77"/>
<polygon fill="black" stroke="black" points="570.87,-305.26 580.2,-300.23 569.78,-298.35 570.87,-305.26"/>
</g>
<!-- commit_changes -->
<g id="node8" class="node">
<title>commit_changes</title>
<polygon fill="lightgrey" stroke="black" points="727.95,-357.21 614.34,-357.21 614.34,-321.21 727.95,-321.21 727.95,-357.21"/>
<text text-anchor="middle" x="671.15" y="-335.01" font-family="Times,serif" font-size="14.00">Commit Changes</text>
</g>
<!-- add_changes&#45;&gt;commit_changes -->
<g id="edge6" class="edge">
<title>add_changes-&gt;commit_changes</title>
<path fill="none" stroke="black" d="M655.26,-308.2C655.73,-309.11 656.2,-310.03 656.68,-310.97"/>
<polygon fill="black" stroke="black" points="653.44,-312.31 661.11,-319.61 659.67,-309.12 653.44,-312.31"/>
</g>
<!-- run_tests -->
<g id="node9" class="node">
<title>run_tests</title>
<polygon fill="lightgrey" stroke="black" points="613.95,-473.88 541.56,-473.88 541.56,-437.88 613.95,-437.88 613.95,-473.88"/>
<text text-anchor="middle" x="577.75" y="-451.68" font-family="Times,serif" font-size="14.00">Run Tests</text>
</g>
<!-- commit_changes&#45;&gt;run_tests -->
<g id="edge18" class="edge">
<title>commit_changes-&gt;run_tests</title>
<path fill="none" stroke="black" d="M656.35,-357.7C641.05,-376.81 616.99,-406.86 599.52,-428.68"/>
<polygon fill="black" stroke="black" points="596.95,-426.3 593.43,-436.3 602.41,-430.68 596.95,-426.3"/>
</g>
<!-- model_loading_test -->
<g id="node10" class="node">
<title>model_loading_test</title>
<polygon fill="lightgrey" stroke="black" points="645.9,-525.91 488.75,-525.91 488.75,-489.91 645.9,-489.91 645.9,-525.91"/>
<text text-anchor="middle" x="567.33" y="-503.71" font-family="Times,serif" font-size="14.00">Run Model Loading Test</text>
</g>
<!-- run_tests&#45;&gt;model_loading_test -->
<g id="edge7" class="edge">
<title>run_tests-&gt;model_loading_test</title>
<path fill="none" stroke="black" d="M574.05,-474.37C573.77,-475.75 573.49,-477.16 573.2,-478.58"/>
<polygon fill="black" stroke="black" points="569.85,-477.5 571.32,-487.99 576.71,-478.88 569.85,-477.5"/>
</g>
<!-- model_performance_test -->
<g id="node11" class="node">
<title>model_performance_test</title>
<polygon fill="lightgrey" stroke="black" points="611.1,-571.93 429.09,-571.93 429.09,-535.93 611.1,-535.93 611.1,-571.93"/>
<text text-anchor="middle" x="520.1" y="-549.73" font-family="Times,serif" font-size="14.00">Run Model Performance Test</text>
</g>
<!-- model_loading_test&#45;&gt;model_performance_test -->
<g id="edge8" class="edge">
<title>model_loading_test-&gt;model_performance_test</title>
<path fill="none" stroke="black" d="M548.39,-526.36C548,-526.74 547.62,-527.11 547.23,-527.49"/>
<polygon fill="black" stroke="black" points="544.84,-524.93 540.12,-534.41 549.73,-529.94 544.84,-524.93"/>
</g>
<!-- promote_to_production -->
<g id="node12" class="node">
<title>promote_to_production</title>
<polygon fill="lightgrey" stroke="black" points="837.8,-523.6 654.98,-523.6 654.98,-487.6 837.8,-487.6 837.8,-523.6"/>
<text text-anchor="middle" x="746.39" y="-501.4" font-family="Times,serif" font-size="14.00">Promote Model to Production</text>
</g>
<!-- model_performance_test&#45;&gt;promote_to_production -->
<g id="edge9" class="edge">
<title>model_performance_test-&gt;promote_to_production</title>
<path fill="none" stroke="black" d="M606.62,-535.45C620.4,-532.51 634.74,-529.44 648.76,-526.45"/>
<polygon fill="black" stroke="black" points="649.39,-529.89 658.44,-524.38 647.93,-523.05 649.39,-529.89"/>
</g>
<!-- docker_build -->
<g id="node13" class="node">
<title>docker_build</title>
<polygon fill="lightgrey" stroke="black" points="348.8,-675.08 218.51,-675.08 218.51,-639.08 348.8,-639.08 348.8,-675.08"/>
<text text-anchor="middle" x="283.66" y="-652.88" font-family="Times,serif" font-size="14.00">Build Docker Image</text>
</g>
<!-- model_performance_test&#45;&gt;docker_build -->
<g id="edge19" class="edge">
<title>model_performance_test-&gt;docker_build</title>
<path fill="none" stroke="black" d="M477.83,-572.37C438.27,-589.63 379.05,-615.46 336.42,-634.06"/>
<polygon fill="black" stroke="black" points="335.11,-630.81 327.35,-638.02 337.91,-637.23 335.11,-630.81"/>
</g>
<!-- end -->
<g id="node18" class="node">
<title>end</title>
<polygon fill="none" stroke="black" points="640.14,-652.61 601.59,-652.61 601.59,-614.06 640.14,-614.06 640.14,-652.61"/>
<polyline fill="none" stroke="black" points="613.59,-652.61 601.59,-640.61"/>
<polyline fill="none" stroke="black" points="601.59,-626.06 613.59,-614.06"/>
<polyline fill="none" stroke="black" points="628.14,-614.06 640.14,-626.06"/>
<polyline fill="none" stroke="black" points="640.14,-640.61 628.14,-652.61"/>
<text text-anchor="middle" x="620.86" y="-629.14" font-family="Times,serif" font-size="14.00">End</text>
</g>
<!-- promote_to_production&#45;&gt;end -->
<g id="edge20" class="edge">
<title>promote_to_production-&gt;end</title>
<path fill="none" stroke="black" d="M728.4,-523.9C707.33,-545.34 672.2,-581.09 647.86,-605.87"/>
<polygon fill="black" stroke="black" points="645.62,-603.15 641.11,-612.73 650.62,-608.05 645.62,-603.15"/>
</g>
<!-- security_scan -->
<g id="node14" class="node">
<title>security_scan</title>
<polygon fill="lightgrey" stroke="black" points="335.37,-721.46 198.07,-721.46 198.07,-685.46 335.37,-685.46 335.37,-721.46"/>
<text text-anchor="middle" x="266.72" y="-699.26" font-family="Times,serif" font-size="14.00">Security Scan (Trivy)</text>
</g>
<!-- docker_build&#45;&gt;security_scan -->
<g id="edge10" class="edge">
<title>docker_build-&gt;security_scan</title>
<path fill="none" stroke="black" d="M276.96,-675.41C276.93,-675.51 276.89,-675.61 276.85,-675.71"/>
<polygon fill="black" stroke="black" points="274.14,-672.94 273.99,-683.54 280.71,-675.34 274.14,-672.94"/>
</g>
<!-- push_docker_image -->
<g id="node15" class="node">
<title>push_docker_image</title>
<polygon fill="lightgrey" stroke="black" points="481.31,-720.07 354.9,-720.07 354.9,-684.07 481.31,-684.07 481.31,-720.07"/>
<text text-anchor="middle" x="418.1" y="-697.87" font-family="Times,serif" font-size="14.00">Push Docker Image</text>
</g>
<!-- security_scan&#45;&gt;push_docker_image -->
<g id="edge11" class="edge">
<title>security_scan-&gt;push_docker_image</title>
<path fill="none" stroke="black" d="M335.77,-702.82C338.2,-702.8 340.65,-702.78 343.09,-702.76"/>
<polygon fill="black" stroke="black" points="343.01,-706.26 352.98,-702.66 342.95,-699.26 343.01,-706.26"/>
</g>
<!-- deploy_to_aks -->
<g id="node16" class="node">
<title>deploy_to_aks</title>
<polygon fill="lightgrey" stroke="black" points="457.66,-765.9 354.54,-765.9 354.54,-729.9 457.66,-729.9 457.66,-765.9"/>
<text text-anchor="middle" x="406.1" y="-743.7" font-family="Times,serif" font-size="14.00">Deploy to AKS</text>
</g>
<!-- push_docker_image&#45;&gt;deploy_to_aks -->
<g id="edge12" class="edge">
<title>push_docker_image-&gt;deploy_to_aks</title>
<path fill="none" stroke="black" d="M413.29,-720.44C413.27,-720.54 413.24,-720.63 413.22,-720.72"/>
<polygon fill="black" stroke="black" points="410.45,-717.49 411.3,-728.05 417.22,-719.27 410.45,-717.49"/>
</g>
<!-- push_docker_image&#45;&gt;end -->
<g id="edge21" class="edge">
<title>push_docker_image-&gt;end</title>
<path fill="none" stroke="black" d="M472.44,-683.65C510.47,-670.76 559.84,-654.02 590.95,-643.47"/>
<polygon fill="black" stroke="black" points="591.75,-646.9 600.1,-640.37 589.5,-640.27 591.75,-646.9"/>
</g>
<!-- deploy_to_aks&#45;&gt;end -->
<g id="edge22" class="edge">
<title>deploy_to_aks-&gt;end</title>
<path fill="none" stroke="black" d="M440.61,-729.49C482.31,-707.24 551.79,-670.18 591.2,-649.16"/>
<polygon fill="black" stroke="black" points="592.72,-652.31 599.9,-644.52 589.43,-646.14 592.72,-652.31"/>
</g>
<!-- start -->
<g id="node17" class="node">
<title>start</title>
<polygon fill="none" stroke="black" points="278.78,-423.47 237.38,-405.47 278.78,-387.47 320.18,-405.47 278.78,-423.47"/>
<polyline fill="none" stroke="black" points="248.38,-410.25 248.38,-400.68"/>
<polyline fill="none" stroke="black" points="267.77,-392.25 289.78,-392.25"/>
<polyline fill="none" stroke="black" points="309.17,-400.68 309.17,-410.25"/>
<polyline fill="none" stroke="black" points="289.78,-418.68 267.77,-418.68"/>
<text text-anchor="middle" x="278.78" y="-401.27" font-family="Times,serif" font-size="14.00">Start</text>
</g>
<!-- start&#45;&gt;checkout_code -->
<g id="edge13" class="edge">
<title>start-&gt;checkout_code</title>
<path fill="none" stroke="black" d="M269.59,-391.07C242.32,-348.35 161.51,-221.74 125.53,-165.37"/>
<polygon fill="black" stroke="black" points="128.7,-163.83 120.37,-157.28 122.8,-167.59 128.7,-163.83"/>
</g>
<!-- start&#45;&gt;push_dvc_data -->
<g id="edge14" class="edge">
<title>start-&gt;push_dvc_data</title>
<path fill="none" stroke="black" d="M308.42,-400.08C332.79,-395.65 368.64,-389.13 402.2,-383.03"/>
<polygon fill="black" stroke="black" points="402.77,-386.49 411.99,-381.25 401.52,-379.6 402.77,-386.49"/>
</g>
<!-- start&#45;&gt;run_tests -->
<g id="edge15" class="edge">
<title>start-&gt;run_tests</title>
<path fill="none" stroke="black" d="M309.37,-410.63C361.63,-419.44 468.44,-437.45 530.4,-447.89"/>
<polygon fill="black" stroke="black" points="529.49,-451.29 539.93,-449.5 530.65,-444.39 529.49,-451.29"/>
</g>
<!-- start&#45;&gt;docker_build -->
<g id="edge16" class="edge">
<title>start-&gt;docker_build</title>
<path fill="none" stroke="black" d="M279.13,-423.56C279.96,-466.53 282.06,-575.01 283.08,-627.6"/>
<polygon fill="black" stroke="black" points="279.58,-627.37 283.27,-637.3 286.58,-627.23 279.58,-627.37"/>
</g>
</g>
</svg>